<svg id="SvgjsSvg1001" width="288" height="288" xmlns="http://www.w3.org/2000/svg" version="1.1" xmlns:xlink="http://www.w3.org/1999/xlink" xmlns:svgjs="http://svgjs.com/svgjs"><defs id="SvgjsDefs1002"></defs><g id="SvgjsG1008" transform="matrix(1,0,0,1,0,0)"><svg xmlns="http://www.w3.org/2000/svg" width="288" height="288" enable-background="new 0 0 24 24" viewBox="0 0 24 24"><rect width="24" height="24" fill="none"></rect><path d="M14,2H6C4.9,2,4.01,2.9,4.01,4L4,20c0,1.1,0.89,2,1.99,2H18c1.1,0,2-0.9,2-2V8L14,2z M18,20H6V4h7v5h5V20z M8,15.01 l1.41,1.41L11,14.84V19h2v-4.16l1.59,1.59L16,15.01L12.01,11L8,15.01z" fill="#718096" class="color000 svgShape"></path></svg></g></svg>